<?xml version="1.0" encoding="utf-8"?>
<!-- Generator: Adobe Illustrator 27.0.0, SVG Export Plug-In . SVG Version: 6.00 Build 0)  -->
<svg version="1.1" id="Layer_1" xmlns="http://www.w3.org/2000/svg" xmlns:xlink="http://www.w3.org/1999/xlink" x="0px" y="0px"
	 viewBox="0 0 1999.8 475" style="enable-background:new 0 0 1999.8 475;" xml:space="preserve">
<style type="text/css">
	.st0{fill:#10182A;}
</style>
<g>
	<g>
		<path class="st0" d="M906.8,205c0,1.1-0.5,1.7-1.4,1.7c-3.8,0-9.7-0.2-17.7-0.6c-8.4-0.4-14.4-0.6-18-0.6
			c-4.8,0-10.6,0.2-17.4,0.6c-6.5,0.4-11.6,0.6-15.4,0.6c-0.8,0-1.1-0.6-1.1-1.7s0.4-1.7,1.1-1.7c4.9,0,8.5-0.5,10.7-1.6
			c2.2-1,3.3-2.9,3.3-5.6c0-3.2-1.9-8.6-5.7-16.3l-29.7-58.5h-50.8l-20.2,44.8c-2.5,5.5-3.7,10.6-3.7,15.4c0,6.8,2.4,12.2,7.3,16
			c4.8,3.8,11.4,5.7,19.5,5.7c0.9,0,1.4,0.6,1.4,1.7s-0.5,1.7-1.4,1.7c-3.4,0-8.4-0.2-14.8-0.6c-7.2-0.4-13.5-0.6-18.8-0.6
			c-5.1,0-11.3,0.2-18.5,0.6c-6.5,0.4-11.7,0.6-15.7,0.6c-0.8,0-1.1-0.6-1.1-1.7s0.4-1.7,1.1-1.7c5.3,0,9.8-1.1,13.4-3.3
			c3.6-2.2,7.2-6.1,10.8-11.7c3.6-5.6,7.9-13.9,12.8-25l61.9-136c0.4-0.6,1.2-0.9,2.6-0.9c1.5,0,2.4,0.3,2.6,0.9l71.3,140.3
			c6.7,13.5,12.2,22.8,16.5,27.9c4.4,5.1,8.9,7.7,13.7,7.7C906.3,203.3,906.8,203.9,906.8,205z M768.5,113.5h43.1l-22.8-45.1
			L768.5,113.5z"/>
		<path class="st0" d="M1003,98.5c4.1,3.1,6.1,6.9,6.1,11.3c0,4-1.2,7.3-3.7,9.8c-2.5,2.6-5.7,3.9-9.7,3.9c-2.9,0-5.2-0.6-7-1.7
			c-1.8-1.1-3.7-2.9-5.6-5.1c-1.7-1.9-3.2-3.3-4.4-4.1c-1.2-0.9-2.7-1.3-4.4-1.3c-1.9,0-3.9,0.7-6.1,2.1c-2.2,1.4-5.6,4.4-10.1,9
			v61.3c0,7.6,1.8,12.8,5.4,15.5c3.6,2.8,10.3,4.1,20,4.1c0.8,0,1.1,0.6,1.1,1.7s-0.4,1.7-1.1,1.7c-6.7,0-11.9-0.1-15.7-0.3
			l-23.1-0.3l-16.8,0.3c-2.9,0.2-6.8,0.3-11.7,0.3c-0.6,0-0.9-0.6-0.9-1.7s0.3-1.7,0.9-1.7c5.9,0,9.9-1.4,12-4.1
			c2.1-2.8,3.1-7.9,3.1-15.5V130c0-5.9-0.7-10.2-2.1-13c-1.4-2.8-3.7-4.1-6.7-4.1c-3.2,0-7.8,1.3-13.7,4h-0.6c-0.6,0-1-0.5-1.3-1.4
			c-0.3-0.9-0.2-1.5,0.1-1.7l39.6-19.4c1.1-0.4,1.8-0.6,2-0.6c2.1,0,4,2,5.8,5.8c1.8,3.9,2.9,9.2,3.3,15.8
			c7.8-8,14.2-13.6,19.2-16.8c5-3.2,9.5-4.8,13.3-4.8C994.7,93.8,998.9,95.4,1003,98.5z"/>
		<path class="st0" d="M1154.3,205c0,1.1-0.4,1.7-1.1,1.7c-4.9,0-8.9-0.1-12-0.3l-16.5-0.3l-17.1,0.3c-2.9,0.2-6.8,0.3-11.7,0.3
			c-0.4,0-0.6-0.6-0.6-1.7s0.2-1.7,0.6-1.7c5.9,0,9.9-1.4,12.1-4.1c2.2-2.8,3.3-7.9,3.3-15.5v-41.1c0-10.3-1.9-17.9-5.7-22.8
			c-3.8-4.9-9.7-7.4-17.7-7.4c-4.6,0-9.3,1-14.1,2.9c-4.8,1.9-9.1,4.5-12.7,7.7v60.7c0,7.6,1.1,12.8,3.3,15.5
			c2.2,2.8,6.2,4.1,12.1,4.1c0.8,0,1.1,0.6,1.1,1.7s-0.4,1.7-1.1,1.7c-4.9,0-8.9-0.1-12-0.3l-16.5-0.3l-17.1,0.3
			c-2.9,0.2-6.8,0.3-11.7,0.3c-0.4,0-0.6-0.6-0.6-1.7s0.2-1.7,0.6-1.7c5.9,0,9.9-1.4,12.1-4.1c2.2-2.8,3.3-7.9,3.3-15.5V38.8
			c0-6.7-0.6-11.4-1.9-14.3c-1.2-2.9-3.4-4.3-6.4-4.3c-2.7,0-6.3,1-10.8,3.1h-0.3c-0.6,0-1.1-0.5-1.6-1.6c-0.5-1-0.5-1.7-0.1-1.9
			L1055,0.3l1.4-0.3c0.9,0,1.9,0.4,3,1.3c1,0.9,1.6,1.7,1.6,2.4v112.9c13.5-15.6,27.9-23.4,43.3-23.4c10.3,0,18.4,3.3,24.4,9.8
			c6,6.6,9,15.2,9,25.8v54.8c0,7.6,1.1,12.8,3.3,15.5c2.2,2.8,6.2,4.1,12.1,4.1C1153.9,203.3,1154.3,203.9,1154.3,205z"/>
		<path class="st0" d="M1168.5,205c0-1.1,0.3-1.7,0.9-1.7c5.9,0,9.9-1.4,12-4.1c2.1-2.8,3.1-7.9,3.1-15.5v-51c0-6.5-0.7-11.1-2-14
			c-1.3-2.9-3.5-4.3-6.6-4.3c-2.5,0-6,1-10.6,3.1h-0.3c-0.8,0-1.3-0.5-1.7-1.6c-0.4-1-0.3-1.7,0.3-1.9l43.1-20l0.9-0.3
			c0.9,0,1.9,0.5,2.9,1.4c0.9,1,1.4,1.8,1.4,2.6v6.3c-0.4,7.6-0.6,16.9-0.6,27.9v51.6c0,7.6,1.1,12.8,3.3,15.5
			c2.2,2.8,6.2,4.1,12.1,4.1c0.6,0,0.9,0.6,0.9,1.7s-0.3,1.7-0.9,1.7c-4.9,0-8.8-0.1-11.7-0.3l-17.1-0.3l-16.8,0.3
			c-2.9,0.2-6.8,0.3-11.7,0.3C1168.8,206.7,1168.5,206.2,1168.5,205z M1183.9,61c-3-3-4.6-7.3-4.6-12.8c0-4.9,1.6-8.9,4.7-11.8
			c3.1-2.9,7.4-4.4,12.7-4.4c5.3,0,9.4,1.4,12.3,4.3c2.9,2.9,4.3,6.8,4.3,12c0,5.5-1.4,9.8-4.3,12.8c-2.9,3-6.9,4.6-12.3,4.6
			C1191.3,65.6,1187,64.1,1183.9,61z"/>
		<path class="st0" d="M1379.3,205c0,1.1-0.3,1.7-0.9,1.7c-4.9,0-8.8-0.1-11.7-0.3l-17.1-0.3l-16.5,0.3c-3,0.2-7,0.3-12,0.3
			c-0.6,0-0.9-0.6-0.9-1.7s0.3-1.7,0.9-1.7c5.9,0,9.9-1.4,12-4.1c2.1-2.8,3.1-7.9,3.1-15.5v-41.1c0-10.3-1.9-17.9-5.6-22.8
			c-3.7-4.9-9.6-7.4-17.5-7.4c-4.6,0-9.3,1-14.1,2.9c-4.8,1.9-9.1,4.5-12.7,7.7v60.7c0,7.6,1.1,12.8,3.3,15.5
			c2.2,2.8,6.2,4.1,12.1,4.1c0.6,0,0.9,0.6,0.9,1.7s-0.3,1.7-0.9,1.7c-4.9,0-8.8-0.1-11.7-0.3l-17.1-0.3l-16.8,0.3
			c-2.9,0.2-6.8,0.3-11.7,0.3c-0.6,0-0.9-0.6-0.9-1.7s0.3-1.7,0.9-1.7c5.9,0,9.9-1.4,12-4.1c2.1-2.8,3.1-7.9,3.1-15.5V130
			c0-5.9-0.7-10.2-2.1-13c-1.4-2.8-3.7-4.1-6.7-4.1c-3.2,0-7.8,1.3-13.7,4h-0.6c-0.6,0-1-0.5-1.3-1.4c-0.3-0.9-0.2-1.5,0.1-1.7
			l39.6-19.4c1.1-0.4,1.8-0.6,2-0.6c2.1,0,4.1,2,6,6.1c1.9,4.1,3,9.7,3.4,16.7c13.1-15.6,27.6-23.4,43.3-23.4
			c10.3,0,18.4,3.3,24.4,9.8c6,6.6,9,15.2,9,25.8v54.8c0,7.6,1.1,12.8,3.3,15.5c2.2,2.8,6.2,4.1,12.1,4.1
			C1379,203.3,1379.3,203.9,1379.3,205z"/>
		<path class="st0" d="M836.9,333.3c0,0.4-0.5,0.7-1.6,0.9c-1,0.2-1.7,0-1.9-0.6c-3-11-8.2-19.2-15.4-24.5c-7.2-5.3-16.7-8-28.5-8
			H781c-5.7,0-9.9,1.2-12.5,3.7c-2.7,2.5-4,6.3-4,11.4v61.6H785c11,0,19.4-1.9,25.2-5.8c5.8-3.9,8.7-9.3,8.7-16.1
			c0-0.4,0.6-0.6,1.7-0.6s1.7,0.2,1.7,0.6l-0.3,26c0,6.1,0.1,10.6,0.3,13.7l0.3,15.1c0,0.6-0.6,0.9-1.7,0.9c-1.1,0-1.7-0.3-1.7-0.9
			c0-7.6-3-13.6-9-18.1c-6-4.5-14.5-6.7-25.5-6.7h-20.2v61c0,5.9,0.8,10.3,2.3,13.1c1.5,2.9,4.4,4.8,8.6,6
			c4.2,1.1,10.7,1.7,19.7,1.7c0.4,0,0.6,0.6,0.6,1.7s-0.2,1.7-0.6,1.7c-7.8,0-13.9-0.1-18.3-0.3l-29.1-0.3l-21.4,0.3
			c-3.8,0.2-9,0.3-15.7,0.3c-0.6,0-0.9-0.6-0.9-1.7s0.3-1.7,0.9-1.7c6.7,0,11.5-0.5,14.5-1.4c3-0.9,5.1-2.8,6.1-5.6
			c1-2.8,1.6-7,1.6-12.7v-132c0-5.7-0.5-9.9-1.4-12.5c-1-2.7-2.9-4.5-5.7-5.6c-2.9-1-7.2-1.6-13.1-1.6c-0.6,0-0.9-0.6-0.9-1.7
			s0.3-1.7,0.9-1.7h120.9c1.9,0,2.9,0.9,2.9,2.6L836.9,333.3z"/>
		<path class="st0" d="M881.2,466.6c-8.8-5.4-15.6-12.7-20.4-22c-4.8-9.2-7.1-19.2-7.1-30.1c0-12.4,3.1-22.9,9.4-31.5
			c6.3-8.6,14.3-15.1,24-19.4c9.7-4.3,19.7-6.4,29.9-6.4c11.8,0,22.1,2.8,30.8,8.3c8.7,5.5,15.4,12.8,20.1,21.8c4.7,9,7,18.7,7,28.9
			c0,11.4-2.9,21.5-8.6,30.4c-5.7,8.8-13.4,15.7-23,20.7c-9.6,4.9-20,7.4-31.2,7.4C900.4,474.7,890.1,472,881.2,466.6z M937.7,457.7
			c3.9-7.3,5.8-17.8,5.8-31.5c0-13.3-1.7-24.7-5.1-34.2c-3.4-9.5-7.9-16.7-13.4-21.5c-5.5-4.8-11.4-7.3-17.7-7.3
			c-15.2,0-22.8,13.6-22.8,40.8c0,12.7,1.6,24,4.8,33.8c3.2,9.8,7.6,17.4,13.1,22.8c5.5,5.4,11.6,8.1,18.3,8.1
			C928.1,468.7,933.8,465.1,937.7,457.7z"/>
		<path class="st0" d="M1126.3,452.5c0.6,0,1.1,0.5,1.6,1.4c0.5,1,0.4,1.5-0.1,1.7l-39.4,19.1c-0.4,0.2-0.9,0.3-1.4,0.3
			c-1.9,0-3.6-2-5-6.1c-1.4-4.1-2.2-9.6-2.4-16.7c-12.5,14.8-26.1,22.2-40.8,22.2c-10.5,0-18.7-3.3-24.7-9.8c-6-6.6-9-15.2-9-25.8
			v-41.9c0-12.4-3-18.5-8.8-18.5c-2.1,0-4.5,0.7-7.1,2h-0.3c-0.8,0-1.3-0.5-1.7-1.6c-0.4-1-0.3-1.7,0.3-1.9l38.2-18.3l1.4-0.3
			c0.9,0,1.9,0.4,3,1.3c1,0.9,1.6,1.7,1.6,2.4v63c0,20.5,7.9,30.8,23.7,30.8c4.2,0,8.4-0.9,12.7-2.7c4.3-1.8,8.1-4.3,11.5-7.6v-48.8
			c0-12.4-3-18.5-8.8-18.5c-2.1,0-4.6,0.7-7.4,2h-0.3c-0.6,0-1-0.5-1.4-1.6c-0.4-1-0.3-1.7,0.3-1.9l38.2-18.3
			c0.4-0.2,0.9-0.3,1.4-0.3c0.9,0,1.9,0.4,3,1.3c1,0.9,1.6,1.7,1.6,2.4v75.9c0,6.5,0.6,11,1.9,13.7c1.2,2.7,3.3,4,6.1,4
			c2.7,0,6.6-1,11.7-3.1H1126.3z"/>
		<path class="st0" d="M1274.1,469.3c0,1.1-0.3,1.7-0.9,1.7c-4.9,0-8.8-0.1-11.7-0.3l-17.1-0.3l-16.5,0.3c-3,0.2-7,0.3-12,0.3
			c-0.6,0-0.9-0.6-0.9-1.7s0.3-1.7,0.9-1.7c5.9,0,9.9-1.4,12-4.1c2.1-2.8,3.1-7.9,3.1-15.5v-41.1c0-10.3-1.9-17.9-5.6-22.8
			c-3.7-4.9-9.6-7.4-17.5-7.4c-4.6,0-9.3,1-14.1,2.9c-4.8,1.9-9.1,4.5-12.7,7.7v60.7c0,7.6,1.1,12.8,3.3,15.5
			c2.2,2.8,6.2,4.1,12.1,4.1c0.6,0,0.9,0.6,0.9,1.7s-0.3,1.7-0.9,1.7c-4.9,0-8.8-0.1-11.7-0.3l-17.1-0.3l-16.8,0.3
			c-2.9,0.2-6.8,0.3-11.7,0.3c-0.6,0-0.9-0.6-0.9-1.7s0.3-1.7,0.9-1.7c5.9,0,9.9-1.4,12-4.1c2.1-2.8,3.1-7.9,3.1-15.5v-53.6
			c0-5.9-0.7-10.2-2.1-13c-1.4-2.8-3.7-4.1-6.7-4.1c-3.2,0-7.8,1.3-13.7,4h-0.6c-0.6,0-1-0.5-1.3-1.4c-0.3-0.9-0.2-1.5,0.1-1.7
			l39.6-19.4c1.1-0.4,1.8-0.6,2-0.6c2.1,0,4.1,2,6,6.1c1.9,4.1,3,9.7,3.4,16.7c13.1-15.6,27.6-23.4,43.3-23.4
			c10.3,0,18.4,3.3,24.4,9.8c6,6.6,9,15.2,9,25.8v54.8c0,7.6,1.1,12.8,3.3,15.5c2.2,2.8,6.2,4.1,12.1,4.1
			C1273.8,467.6,1274.1,468.2,1274.1,469.3z"/>
		<path class="st0" d="M1421.5,452.5c0.6,0,1.1,0.5,1.6,1.4c0.5,1,0.5,1.5,0.1,1.7l-39.4,19.1l-1.4,0.3c-1.7,0-3.3-1.8-4.7-5.4
			c-1.4-3.6-2.3-8.6-2.7-14.8c-14.1,13.3-28.4,20-43.1,20c-8.4,0-15.9-2.2-22.7-6.6c-6.8-4.4-12.1-10.8-16.1-19.2
			c-4-8.5-6-18.4-6-29.8c0-14.4,3.4-26.3,10.1-35.5c6.7-9.2,15.1-15.9,25.1-20.1c10-4.2,20-6.3,30.1-6.3c7,0,14.4,1.1,22.2,3.4V303
			c0-6.7-0.6-11.4-1.9-14.3c-1.2-2.9-3.4-4.3-6.4-4.3c-2.5,0-6,1-10.6,3.1h-0.3c-0.8,0-1.4-0.5-1.9-1.6c-0.5-1-0.5-1.7-0.1-1.9
			l41.9-19.7l1.1-0.3c0.9,0,2,0.4,3.1,1.3c1.1,0.9,1.7,1.7,1.7,2.4v170c0,6.5,0.6,11,1.9,13.7c1.2,2.7,3.3,4,6.1,4
			c2.5,0,6.4-1,11.7-3.1H1421.5z M1374.7,449v-1.4v-69.3c-3.4-4.8-7.3-8.2-11.5-10.4c-4.3-2.2-9.3-3.3-15-3.3
			c-10.3,0-18.1,3.6-23.5,10.7c-5.4,7.1-8.1,18.7-8.1,34.6s2.9,28.5,8.6,37.5c5.7,9,13.2,13.5,22.5,13.5
			C1357.1,461,1366.2,457,1374.7,449z"/>
		<path class="st0" d="M1543,455.6c0.8,0,1.3,0.4,1.6,1.3c0.3,0.9,0,1.5-0.7,1.9l-29.4,14c-0.8,0.4-1.7,0.6-2.9,0.6
			c-2.9,0-5.7-1.4-8.4-4.3c-2.8-2.9-4.7-6.7-5.8-11.7l-13.1,7.1c-4.9,2.5-10.1,4.5-15.4,6.1c-5.3,1.6-10.1,2.4-14.3,2.4
			c-6.1,0-10.9-1.6-14.4-4.7c-3.5-3.1-5.3-7.7-5.3-13.5c0-4.4,1.1-7.9,3.3-10.6c2.2-2.7,5.3-4.9,9.4-6.7c4.1-1.8,10.6-4.2,19.5-7.3
			l29.1-9.4v-22.5c0-11.4-1.1-19.8-3.4-25.2c-2.3-5.4-6-8.1-11.1-8.1c-4.6,0-8.2,1.7-10.8,5.1c-2.7,3.4-4.3,9-4.8,16.8
			c-1.1,10.6-6.8,16-16.8,16c-8.9,0-13.4-3.9-13.4-11.7c0-5.1,3.2-10.3,9.7-15.4c6.5-5.1,14.3-9.3,23.4-12.5
			c9.1-3.2,17.1-4.8,24-4.8c8.9,0,16.2,2.7,21.8,8c5.6,5.3,8.4,13.1,8.4,23.4v50.5c0,5.5,1,9.8,3,12.8c2,3,4.8,4.6,8.4,4.6
			c2.7,0,5.4-0.7,8.3-2H1543z M1496.5,452.8c-0.2-1.3-0.3-3.3-0.3-6v-21.1l-15.7,5.7c-5.1,1.9-8.8,4-11,6.3c-2.2,2.3-3.3,5-3.3,8.3
			c0,4,1.1,7.1,3.4,9.4c2.3,2.3,5.1,3.4,8.6,3.4c4.2,0,9-1.3,14.5-4L1496.5,452.8z"/>
		<path class="st0" d="M1635.9,451c0.8,0,1.4,0.4,1.9,1.1c0.5,0.8,0.4,1.3-0.1,1.7c-7,7-13.9,12.2-20.5,15.5c-6.7,3.3-13.7,5-21.1,5
			c-8.4,0-15.5-2-21.4-6c-5.9-4-8.8-10.7-8.8-20.2v-63.3c0-5.9-1-10-3.1-12.3c-2.1-2.3-5.9-3.4-11.4-3.4c-0.2,0-0.4-0.3-0.7-0.9
			c-0.3-0.6-0.4-1.1-0.4-1.7c0-0.8,0.1-1.4,0.3-1.9c0.2-0.5,0.5-0.7,0.9-0.7c9.7-0.4,17.5-2.5,23.5-6.3c6-3.8,10.6-9.6,13.8-17.4
			c0.4-0.8,1.2-1.1,2.4-1.1c1.2,0,1.9,0.4,1.9,1.1v22.8c11-0.2,23.4-1,37.1-2.6c0.4,0,0.8,0.7,1.3,2.1c0.5,1.4,0.7,3,0.7,4.7
			c0,1.9-0.3,3.8-1,5.6c-0.7,1.8-1.4,2.6-2.1,2.4c-12.4-2.7-24.3-4.1-35.9-4.3v67.6c0,7.2,1.9,12.5,5.6,16c3.7,3.4,8.6,5.1,14.7,5.1
			c7.6,0,15-2.9,22.2-8.6L1635.9,451z"/>
		<path class="st0" d="M1649.6,469.3c0-1.1,0.3-1.7,0.9-1.7c5.9,0,9.9-1.4,12-4.1c2.1-2.8,3.1-7.9,3.1-15.5v-51c0-6.5-0.7-11.1-2-14
			c-1.3-2.9-3.5-4.3-6.6-4.3c-2.5,0-6,1-10.6,3.1h-0.3c-0.8,0-1.3-0.5-1.7-1.6c-0.4-1-0.3-1.7,0.3-1.9l43.1-20l0.9-0.3
			c0.9,0,1.9,0.5,2.9,1.4c0.9,1,1.4,1.8,1.4,2.6v6.3c-0.4,7.6-0.6,16.9-0.6,27.9v51.6c0,7.6,1.1,12.8,3.3,15.5
			c2.2,2.8,6.2,4.1,12.1,4.1c0.6,0,0.9,0.6,0.9,1.7s-0.3,1.7-0.9,1.7c-4.9,0-8.8-0.1-11.7-0.3l-17.1-0.3l-16.8,0.3
			c-2.9,0.2-6.8,0.3-11.7,0.3C1649.9,471,1649.6,470.4,1649.6,469.3z M1665,325.3c-3-3-4.6-7.3-4.6-12.8c0-4.9,1.6-8.9,4.7-11.8
			c3.1-2.9,7.4-4.4,12.7-4.4c5.3,0,9.4,1.4,12.3,4.3c2.9,2.9,4.3,6.8,4.3,12c0,5.5-1.4,9.8-4.3,12.8c-2.9,3-6.9,4.6-12.3,4.6
			C1672.3,329.8,1668.1,328.3,1665,325.3z"/>
		<path class="st0" d="M1751,466.6c-8.8-5.4-15.6-12.7-20.4-22c-4.8-9.2-7.1-19.2-7.1-30.1c0-12.4,3.1-22.9,9.4-31.5
			c6.3-8.6,14.3-15.1,24-19.4c9.7-4.3,19.7-6.4,29.9-6.4c11.8,0,22.1,2.8,30.8,8.3c8.7,5.5,15.4,12.8,20.1,21.8c4.7,9,7,18.7,7,28.9
			c0,11.4-2.9,21.5-8.6,30.4c-5.7,8.8-13.4,15.7-23,20.7c-9.6,4.9-20,7.4-31.2,7.4C1770.1,474.7,1759.8,472,1751,466.6z
			 M1807.5,457.7c3.9-7.3,5.8-17.8,5.8-31.5c0-13.3-1.7-24.7-5.1-34.2c-3.4-9.5-7.9-16.7-13.4-21.5c-5.5-4.8-11.4-7.3-17.7-7.3
			c-15.2,0-22.8,13.6-22.8,40.8c0,12.7,1.6,24,4.8,33.8c3.2,9.8,7.6,17.4,13.1,22.8c5.5,5.4,11.6,8.1,18.3,8.1
			C1797.9,468.7,1803.6,465.1,1807.5,457.7z"/>
		<path class="st0" d="M1999.8,469.3c0,1.1-0.3,1.7-0.9,1.7c-4.9,0-8.8-0.1-11.7-0.3l-17.1-0.3l-16.5,0.3c-3,0.2-7,0.3-12,0.3
			c-0.6,0-0.9-0.6-0.9-1.7s0.3-1.7,0.9-1.7c5.9,0,9.9-1.4,12-4.1c2.1-2.8,3.1-7.9,3.1-15.5v-41.1c0-10.3-1.9-17.9-5.6-22.8
			c-3.7-4.9-9.6-7.4-17.5-7.4c-4.6,0-9.3,1-14.1,2.9c-4.8,1.9-9.1,4.5-12.7,7.7v60.7c0,7.6,1.1,12.8,3.3,15.5
			c2.2,2.8,6.2,4.1,12.1,4.1c0.6,0,0.9,0.6,0.9,1.7s-0.3,1.7-0.9,1.7c-4.9,0-8.8-0.1-11.7-0.3l-17.1-0.3l-16.8,0.3
			c-2.9,0.2-6.8,0.3-11.7,0.3c-0.6,0-0.9-0.6-0.9-1.7s0.3-1.7,0.9-1.7c5.9,0,9.9-1.4,12-4.1c2.1-2.8,3.1-7.9,3.1-15.5v-53.6
			c0-5.9-0.7-10.2-2.1-13c-1.4-2.8-3.7-4.1-6.7-4.1c-3.2,0-7.8,1.3-13.7,4h-0.6c-0.6,0-1-0.5-1.3-1.4c-0.3-0.9-0.2-1.5,0.1-1.7
			l39.6-19.4c1.1-0.4,1.8-0.6,2-0.6c2.1,0,4.1,2,6,6.1c1.9,4.1,3,9.7,3.4,16.7c13.1-15.6,27.6-23.4,43.3-23.4
			c10.3,0,18.4,3.3,24.4,9.8c6,6.6,9,15.2,9,25.8v54.8c0,7.6,1.1,12.8,3.3,15.5c2.2,2.8,6.2,4.1,12.1,4.1
			C1999.5,467.6,1999.8,468.2,1999.8,469.3z"/>
	</g>
	<g>
		<path class="st0" d="M71.5,475c-23.8,0-41.7-4.8-53.6-14.3C6,451.1,0,439.5,0,425.8c0-10.1,3.5-17.2,10.6-21.4
			c7.1-4.2,14.1-6.2,21.1-6.2c3.8,0,7.6,1.1,11.3,3.4c3.7,2.2,5.6,6.2,5.6,11.8c0,4.3-1.9,8.1-5.6,11.5c-3.7,3.4-8.1,5.1-13.3,5.1
			c-2.9,0-5.8-0.2-8.6-0.5c-2.8-0.3-5.3-1.3-7.6-2.9v2.4c0,10.8,4.7,19.7,14,26.6c9.3,7,24.9,10.5,46.7,10.5
			c15.1,0,30.5-3.3,46.2-9.8c15.7-6.5,32.1-15.6,49.2-27.3c8.3-6.1,16.6-12.4,24.8-18.9c8.2-6.5,16.7-13.4,25.5-20.6
			c-32.6-12.1-58.2-29-76.7-50.7c-18.5-21.7-28.4-44.4-29.5-68.3c-0.7-15.7,2.7-30.4,10.1-44c7.4-13.6,18.7-24.7,33.7-33.2
			c15.1-8.5,33.5-12.8,55.3-12.8c30.3,0,57.1,8.9,80.2,26.8c23.1,17.9,40.9,39.9,53.3,66.2l9.1-9.1c41.6-41.6,77.6-76.4,108.2-104.5
			c30.6-28.1,56.9-51.1,78.9-68.9c22-17.9,41.1-32.1,57.1-42.6c16.1-10.6,30.3-19.1,42.6-25.6c16.6-8.8,30.3-14.7,41.1-17.9
			c10.8-3.1,19-4.7,24.6-4.7c4,0,6.1,1,6.1,3c0,0.9-2.2,2.2-6.7,4c-3.4,1.1-8.2,4.9-14.5,11.5c-6.3,6.5-15.5,17.6-27.6,33.2
			c-12.1,15.6-28.7,37.4-49.7,65.4c-21,28-47.8,63.7-80.2,107.2c-32.5,43.5-72.4,96.5-119.8,159c40.9-12.1,76.7-31.4,107.5-57.6
			c30.8-26.3,52.7-56.7,65.7-91.4c2.7-6.7,4.5-10.1,5.4-10.1c0.7,0,1.7,1,3.2,2.9c1.5,1.9,2.2,4.2,2.2,6.9
			c-1.3,19.3-6.9,36.4-16.5,51.1c-9.7,14.7-21.2,28.7-34.7,42c-18,17.5-39.4,32.2-64.4,44c-24.9,11.8-51.4,20.6-79.2,26.5
			l-57.6,76.2c-7-0.4-14.1-0.9-21.4-1.3c-7.3-0.4-13.2-0.7-17.7-0.7c-3.8,0-7.2,0.2-10.3,0.7c-3,0.5-6.1,0.9-9.3,1.3
			c8.5-10.8,17-21.3,25.3-31.5c8.3-10.2,16.5-20.3,24.6-30.2c1.8-2.7,3-4.8,3.7-6.4c-3.6,0.2-7.1,0.4-10.6,0.5
			c-3.5,0.1-7,0.2-10.6,0.2c-16.4,0-32.1-1.1-47-3.4c-14.9-2.2-28.9-5.4-42-9.4c-16,13.5-30,24.7-42,33.7c-12,9-22.4,16.2-31.2,21.6
			c-14.4,9-28.8,15.6-43.2,19.9C100.9,472.9,86.3,475,71.5,475z M227.9,382.6c15.5-13.3,32.2-28.1,50.1-44.7
			c17.9-16.5,38-35.7,60.5-57.5c-11.5-26.7-28.3-48.4-50.4-65.1c-22.1-16.6-47-24.9-74.7-24.9c-14.4,0-27.6,3.7-39.6,11.1
			c-12,7.4-21.6,17.1-28.7,29.2c-7.1,12-10.6,25-10.6,38.9c0,23.4,7.8,45.3,23.3,65.7C173.3,355.9,196.7,371.6,227.9,382.6z
			 M322.6,396.8c8.1,0,16-0.3,23.6-1c2.7-7,4.7-14,5.9-21.2c1.2-7.2,1.9-13.3,1.9-18.2c0-22.2-3.7-43.8-11.1-64.7
			c-20.5,19.8-39.3,37.5-56.5,53.1c-17.2,15.6-32.8,29.5-46.7,41.6C264.2,393.3,291.8,396.8,322.6,396.8z M360.7,384.3
			c63.4-77.8,116.7-141.9,160-192.5c43.3-50.6,78-90.2,104.3-118.8c26.3-28.7,45.6-48.7,58-60.2c-7.2,2.9-14.7,6.1-22.4,9.4
			s-17,8.3-27.8,14.8c-18.2,11-39.3,26.2-63.2,45.7c-23.9,19.4-52,43.9-84.3,73.3C453,185.5,415.4,221.1,372.5,263l-21.6,20.9
			c4.5,11.2,7.9,22.8,10.3,34.7c2.4,11.9,3.5,23.8,3.5,35.7C364.8,364.4,363.4,374.4,360.7,384.3z"/>
	</g>
</g>
</svg>
